# xmcd
#
# Track frame offsets:
#	150
#	18440
#	39849
#	67702
#	86610
#	114077
#	138213
#	151618
#	169797
#	186656
#	206991
#	224660
#	244755
#	266063
#	277444
#	288099
#	308788
#	327103
#	349782
#
# Disc length: 4721
#
# Revision: 2
# Processed by: cddbd v1.5.1PL0 Copyright (c) Steve Scherf et al.
# Submitted via: EasyCDDAExtractor 5.1.0
# Normalized: r1:DSETVAR1
#
DISCID=17126f13
DTITLE=Various Artist - Blues Beat Sessions
DYEAR=2002
DGENRE=Blues
TTITLE0=Cujo - Curfew
TTITLE1=R.L. Burnside - It's Bad You Know
TTITLE2=Wass - Summertime
TTITLE3=Mum - Boychild
TTITLE4=Banzai Republic - Gambling Man
TTITLE5=Joseph Malik - Take It All And Check It All About
TTITLE6=T-Model Ford Feat Go Gittas Camp - Cut You Loose
TTITLE7=Trapazoid - Gravel Baby
TTITLE8=Jumbo Layer - Misty
TTITLE9=Lightnin'Hopkins - Take A Trip With Me
TTITLE10=Kid Loco - Here Come The Munchies
TTITLE11=The Private Lightnin' Six - It's Not My Fault
TTITLE12=Olu Dara - Herbman
TTITLE13=Paul Jones - Going Back Home
TTITLE14=Matt Ward - Silverline
TTITLE15=Dr. John - Gris-Gris Gumbo Ya Ya
TTITLE16=Little Axe - Midnight Dream
TTITLE17=Gare du Nord - Pablo's Blues
TTITLE18=Bessie Jones - Sometimes
EXTD=
EXTT0=
EXTT1=
EXTT2=
EXTT3=
EXTT4=
EXTT5=
EXTT6=
EXTT7=
EXTT8=
EXTT9=
EXTT10=
EXTT11=
EXTT12=
EXTT13=
EXTT14=
EXTT15=
EXTT16=
EXTT17=
EXTT18=
PLAYORDER=
